<?xml version="1.0" encoding="UTF-8" standalone="no"?>
<svg
   xmlns:dc="http://purl.org/dc/elements/1.1/"
   xmlns:cc="http://creativecommons.org/ns#"
   xmlns:rdf="http://www.w3.org/1999/02/22-rdf-syntax-ns#"
   xmlns:svg="http://www.w3.org/2000/svg"
   xmlns="http://www.w3.org/2000/svg"
   xmlns:sodipodi="http://sodipodi.sourceforge.net/DTD/sodipodi-0.dtd"
   xmlns:inkscape="http://www.inkscape.org/namespaces/inkscape"
   inkscape:export-ydpi="9"
   inkscape:export-xdpi="9"
   inkscape:export-filename="C:\MyProj\WallpaperChanger\res\AppIcon48.png"
   inkscape:version="1.0 (4035a4fb49, 2020-05-01)"
   sodipodi:docname="AppIcon.svg"
   version="1.1"
   width="512"
   viewBox="0 0 515.588 515.588"
   height="512"
   enable-background="new 0 0 515.588 515.588"
   id="Capa_1">
  <metadata
     id="metadata39">
    <rdf:RDF>
      <cc:Work
         rdf:about="">
        <dc:format>image/svg+xml</dc:format>
        <dc:type
           rdf:resource="http://purl.org/dc/dcmitype/StillImage" />
        <dc:title></dc:title>
      </cc:Work>
    </rdf:RDF>
  </metadata>
  <defs
     id="defs37" />
  <sodipodi:namedview
     inkscape:current-layer="Capa_1"
     inkscape:window-maximized="1"
     inkscape:window-y="-9"
     inkscape:window-x="-9"
     inkscape:cy="256"
     inkscape:cx="184.09524"
     inkscape:zoom="1"
     showgrid="false"
     id="namedview35"
     inkscape:window-height="1001"
     inkscape:window-width="1920"
     inkscape:pageshadow="2"
     inkscape:pageopacity="0"
     guidetolerance="10"
     gridtolerance="10"
     objecttolerance="10"
     borderopacity="1"
     bordercolor="#666666"
     pagecolor="#ffffff" />
  <path
     id="path6"
     fill="#22b37f"
     d="M 411.975,151.082 C 401.463,82.384 349.772,29.573 285.289,14.825 c -5.508,-1.26 -5.165,-9.251 0.441,-9.95 0.099,-0.012 0.197,-0.024 0.296,-0.037 89.161,-10.947 170.454,51.177 183.801,139.437 0.392,2.594 2.777,4.402 5.381,4.083 l 33.128,-4.067 c 4.292,-0.527 7.078,4.398 4.416,7.805 l -58.525,74.908 c -1.65,2.112 -4.7,2.487 -6.813,0.836 l -74.908,-58.525 c -3.407,-2.662 -1.895,-8.115 2.397,-8.642 l 32.858,-4.034 c 2.718,-0.334 4.628,-2.85 4.214,-5.557 z" />
  <g
     id="g10">
    <path
       id="path8"
       fill="#09a76d"
       d="m 508.336,144.29 -33.128,4.067 c -2.604,0.32 -4.989,-1.489 -5.381,-4.083 C 456.479,56.016 375.187,-6.109 286.026,4.839 c -1.089,0.133 -2.178,0.267 -3.267,1.078 -4.582,3.412 -3.431,7.56 2.141,8.821 8.859,2.003 17.476,4.732 25.782,8.114 61.516,13.463 111.664,61.504 126.015,125.061 2.092,9.265 10.753,15.512 20.181,14.355 l 12.659,-1.554 c 7.204,-0.885 11.881,7.382 7.413,13.102 l -37.407,47.878 7.869,6.148 c 2.112,1.65 5.162,1.276 6.813,-0.836 l 58.525,-74.908 c 2.664,-3.409 -0.123,-8.335 -4.414,-7.808 z" />
  </g>
  <path
     id="path12"
     fill="#22b37f"
     d="m 366.3,413.769 c 68.698,-10.512 121.509,-62.203 136.257,-126.686 1.26,-5.508 9.251,-5.165 9.95,0.441 0.012,0.099 0.024,0.197 0.037,0.296 10.947,89.161 -51.177,170.453 -139.436,183.801 -2.594,0.392 -4.402,2.777 -4.083,5.381 l 4.067,33.128 c 0.527,4.292 -4.398,7.078 -7.805,4.416 l -74.908,-58.525 c -2.112,-1.65 -2.487,-4.7 -0.836,-6.813 L 348.068,374.3 c 2.662,-3.407 8.115,-1.895 8.642,2.397 l 4.034,32.858 c 0.333,2.718 2.849,4.628 5.556,4.214 z" />
  <g
     id="g16">
    <path
       id="path14"
       fill="#09a76d"
       d="m 373.107,471.621 c 88.26,-13.348 150.384,-94.64 139.436,-183.801 -0.012,-0.099 -0.024,-0.197 -0.037,-0.296 -0.7,-5.625 -8.68,-5.999 -9.943,-0.473 -5.408,23.665 -15.947,45.603 -30.51,64.42 -19.363,50.691 -63.132,90.297 -118.655,102.612 -8.924,1.979 -14.927,10.347 -13.813,19.42 l 2.6,21.174 c 0.076,0.617 0.028,1.198 -0.101,1.742 l 23.201,18.127 c 3.407,2.662 8.332,-0.124 7.805,-4.416 l -4.067,-33.128 c -0.318,-2.604 1.49,-4.988 4.084,-5.381 z" />
  </g>
  <path
     id="path18"
     fill="#22b37f"
     d="m 103.613,368.094 c 10.512,68.698 62.203,121.509 126.686,136.257 5.508,1.26 5.165,9.251 -0.441,9.95 -0.099,0.012 -0.197,0.024 -0.296,0.037 C 140.401,525.285 59.109,463.161 45.761,374.902 45.369,372.308 42.984,370.5 40.38,370.819 l -33.128,4.067 c -4.292,0.527 -7.078,-4.398 -4.416,-7.805 l 58.525,-74.908 c 1.65,-2.112 4.7,-2.487 6.813,-0.836 l 74.908,58.525 c 3.407,2.662 1.895,8.115 -2.397,8.642 l -32.858,4.034 c -2.717,0.333 -4.628,2.85 -4.214,5.556 z" />
  <path
     id="path20"
     fill="#09a76d"
     d="M 230.685,504.439 C 166.023,489.814 114.147,436.931 103.613,368.097 c -0.414,-2.707 1.495,-5.226 4.213,-5.559 l 32.858,-4.034 c 4.292,-0.527 5.804,-5.98 2.397,-8.642 L 68.173,291.337 c -2.112,-1.65 -5.162,-1.276 -6.813,0.837 l -12.584,16.106 35.491,27.729 c 6.546,5.114 3.641,15.589 -4.604,16.601 l -3.651,0.448 c -13.289,1.632 -22.059,14.711 -18.444,27.602 16.53,58.937 64.275,103.185 122.42,116.484 5.508,1.26 5.165,9.251 -0.441,9.95 -0.099,0.012 -0.197,0.024 -0.296,0.036 -6.152,0.756 -12.264,1.15 -18.321,1.225 21.552,6.612 44.81,8.906 68.63,5.982 1.089,-0.133 2.178,-0.267 3.266,-1.077 4.587,-3.414 3.435,-7.56 -2.141,-8.821 z" />
  <path
     id="path22"
     fill="#22b37f"
     d="M 151.98,101.819 C 83.282,112.331 30.471,164.022 15.723,228.505 14.463,234.013 6.472,233.67 5.773,228.064 5.761,227.965 5.749,227.867 5.736,227.768 -5.211,138.607 56.913,57.314 145.173,43.967 c 2.594,-0.392 4.402,-2.777 4.083,-5.381 L 145.189,5.458 c -0.527,-4.292 4.398,-7.078 7.805,-4.416 l 74.908,58.525 c 2.112,1.65 2.487,4.7 0.836,6.813 l -58.525,74.908 c -2.662,3.407 -8.115,1.895 -8.642,-2.397 l -4.034,-32.858 c -0.334,-2.718 -2.85,-4.628 -5.557,-4.214 z" />
  <g
     id="g28"
     fill="#09a76d">
    <path
       id="path24"
       d="m 78.233,114.455 c -34.972,19.117 -58.908,44.731 -70.474,60.258 -3.447,17.019 -4.256,34.873 -2.023,53.055 0.012,0.099 0.024,0.197 0.037,0.296 0.699,5.607 8.69,5.949 9.95,0.442 7.453,-32.588 24.632,-61.904 48.666,-84.294 28.566,-26.873 62.838,-38.138 80.456,-41.136 2.359,-0.466 4.737,-0.889 7.136,-1.256 0.548,-0.084 1.082,-0.05 1.598,0.044 0.005,-0.005 0.011,-0.011 0.016,-0.016 -25.09,-7.781 -60.467,4.465 -75.362,12.607 z" />
    <path
       id="path26"
       d="M 227.901,59.567 152.994,1.042 c -3.407,-2.662 -8.332,0.124 -7.806,4.416 l 1.851,15.078 49.956,39.03 c 2.112,1.65 2.487,4.701 0.836,6.813 l -39.031,49.956 2.769,22.555 c 0.527,4.292 5.98,5.804 8.642,2.397 l 58.525,-74.908 c 1.652,-2.111 1.278,-5.162 -0.835,-6.812 z" />
  </g>
  <g
     transform="matrix(0.37361521,0,0,0.39987905,164.95069,175.41898)"
     id="g867">
    <path
       d="m 467,18.5 h -30 v 375 h 30 c 16.5,0 30,-13.5 30,-30 v -315 c 0,-16.5 -13.5,-30 -30,-30 z"
       fill="#3d5168"
       id="path8-2" />
    <path
       d="M 437,18.5 H 30 C 13.5,18.5 0,32 0,48.5 v 315 c 0,16.5 13.5,30 30,30 h 407 c 16.5,0 30,-13.5 30,-30 v -30 L 248.5,191 467,48.5 c 0,-16.5 -13.5,-30 -30,-30 z"
       fill="#57697d"
       id="path10" />
    <path
       d="m 467,48.5 -29.994,-0.027 c -10e-4,0.007 -188.506,142.5 -188.506,142.5 0,0 188.502,142.497 188.5,142.5 0,0 29.999,-0.025 29.999,-0.025 C 467,333.449 466.997,48.506 467,48.5 Z"
       fill="#1e8aff"
       id="path12-5" />
    <path
       d="M 437,48.5 30.088,48.473 c -0.024,0.014 -0.045,284.994 -0.088,285 0,0 406.98,-0.025 406.99,-0.025 0.005,0.001 -0.032,-284.942 0.01,-284.948 z"
       fill="#54a5ff"
       id="path14-8" />
    <circle
       cx="467.67999"
       cy="363.47299"
       fill="#85cf75"
       r="7.5"
       id="circle16" />
    <circle
       cx="437.67999"
       cy="363.47299"
       fill="#3d5168"
       r="7.5"
       id="circle18" />
  </g>
</svg>
